<svg width="32" height="32" viewBox="0 0 32 32" fill="none" xmlns="http://www.w3.org/2000/svg">
<circle cx="16" cy="16" r="15.5" fill="white" fill-opacity="0.2" stroke="white"/>
<path d="M19.9989 9.50225C19.9989 9.31228 19.8889 9.13231 19.7189 9.05232C19.539 8.96234 19.339 8.99233 19.189 9.11231L14.7598 12.6417L19.9989 17.8808V9.50225Z" fill="white"/>
<path d="M22.8524 22.1451L9.85457 9.1472C9.6596 8.95223 9.34266 8.95223 9.14769 9.1472C8.95272 9.34217 8.95272 9.65912 9.14769 9.85409L12.2932 13.0006H12.0002C11.6903 13.0006 11.4203 13.1405 11.2403 13.3605C11.0904 13.5305 11.0004 13.7604 11.0004 14.0004V17.9997C11.0004 18.5497 11.4503 18.9996 12.0002 18.9996H14.3198L19.189 22.8889C19.279 22.9589 19.389 22.9989 19.499 22.9989C19.5689 22.9989 19.6489 22.9789 19.7189 22.9489C19.8889 22.8689 19.9989 22.689 19.9989 22.499V20.7063L22.1445 22.8519C22.2425 22.9499 22.3705 22.9989 22.4985 22.9989C22.6264 22.9989 22.7544 22.9499 22.8524 22.8529C23.0474 22.657 23.0474 22.341 22.8524 22.1451Z" fill="white"/>
</svg>
