<svg xmlns="http://www.w3.org/2000/svg" width="32" height="32" fill="none" viewBox="0 0 32 32"><circle cx="16" cy="16" r="15.5" fill="#fff" fill-opacity=".2" stroke="#fff"/><path fill="#fff" d="M18.6694 10.0146C17.9437 10.0146 17.3555 10.6029 17.3555 11.3286V20.672C17.3555 21.3976 17.9437 21.9859 18.6694 21.9859C19.395 21.9859 19.9833 21.3976 19.9833 20.672V11.3286C19.9833 10.6029 19.3951 10.0146 18.6694 10.0146Z"/><path fill="#fff" d="M13.3305 10.0146C12.6049 10.0146 12.0166 10.6029 12.0166 11.3286V20.672C12.0166 21.3976 12.6049 21.9859 13.3305 21.9859C14.0562 21.9859 14.6444 21.3976 14.6444 20.672V11.3286C14.6444 10.6029 14.0562 10.0146 13.3305 10.0146Z"/></svg>