<svg width="32" height="32" viewBox="0 0 32 32" fill="none" xmlns="http://www.w3.org/2000/svg">
<path d="M16 31.5C24.5604 31.5 31.5 24.5604 31.5 16C31.5 7.43959 24.5604 0.5 16 0.5C7.43959 0.5 0.5 7.43959 0.5 16C0.5 24.5604 7.43959 31.5 16 31.5Z" fill="white" fill-opacity="0.2" stroke="white"/>
<path fill-rule="evenodd" clip-rule="evenodd" d="M19.7189 9.05232C19.8889 9.13231 19.9989 9.31228 19.9989 9.50225V17.499L20 17.5V19L19.9985 20.7065V22.4992C19.9985 22.6892 19.8885 22.8691 19.7185 22.9491C19.6485 22.9791 19.5685 22.9991 19.4986 22.9991C19.3886 22.9991 19.2786 22.9591 19.1886 22.8891L14.3194 18.9998H11.9998C11.4499 18.9998 11 18.5499 11 17.9999V14.0006C11 13.7606 11.09 13.5307 11.2399 13.3607C11.4199 13.1407 11.6901 13 12 13H13.9997H14.442L19.189 9.11231C19.339 8.99233 19.539 8.96234 19.7189 9.05232Z" fill="white"/>
</svg>
